<?xml version="1.0" encoding="UTF-8"?>
<svg version="1.1" xmlns="http://www.w3.org/2000/svg" width="380" height="380">
<path d="M0 0 C125.4 0 250.8 0 380 0 C380 125.4 380 250.8 380 380 C254.6 380 129.2 380 0 380 C0 254.6 0 129.2 0 0 Z " fill="#FDFDFD" transform="translate(0,0)"/>
<path d="M0 0 C0.79921875 0.30035156 1.5984375 0.60070312 2.421875 0.91015625 C8.11613125 3.38266225 12.79843171 7.57864388 16.15625 12.796875 C19.05477374 20.36524255 17.85167996 29.03315317 14.64306641 36.26318359 C7.85180321 49.93365441 -1.8449093 58.16296525 -16.3046875 63.13671875 C-20.60656328 64.14170242 -24.53896877 64.3310592 -28.9375 64.3125 C-29.69740234 64.32861328 -30.45730469 64.34472656 -31.24023438 64.36132812 C-36.79092752 64.36606826 -40.90437438 63.19709 -46 61 C-43.696784 58.696784 -41.28473915 57.69694577 -38.33740234 56.38671875 C-26.11454111 50.95083799 -14.55939157 44.4267944 -7.5625 32.5625 C-6.37673457 27.16067969 -6.15673569 22.71896187 -8.625 17.6875 C-13.97654244 11.63180724 -19.27901852 10.10455967 -27 9 C-28.81371094 8.73509766 -28.81371094 8.73509766 -30.6640625 8.46484375 C-58.65551966 5.06189638 -88.86579185 11.6448644 -111.4375 29 C-118.4230151 34.88552327 -124.09939423 40.69575959 -125.4375 50.0625 C-124.84412893 54.04656289 -123.67946275 55.98560441 -121 59 C-114.17347421 62.12630716 -107.84169951 62.66240344 -100.421875 63.08398438 C-93.35793572 63.62028038 -87.66281739 65.26710847 -82.625 70.4375 C-79.1388147 75.93494605 -78.08134859 80.55049883 -79 87 C-81.25924294 94.92189477 -84.36979429 101.94267523 -90 108 C-90.61230469 108.66515625 -91.22460938 109.3303125 -91.85546875 110.015625 C-105.96657045 123.88845294 -127.76301026 128.43569317 -146.875 128.5 C-155.65880697 128.39659045 -164.67799145 128.10650319 -173 125 C-173.33 124.34 -173.66 123.68 -174 123 C-173.38705078 122.89977539 -172.77410156 122.79955078 -172.14257812 122.69628906 C-136.0499046 117.65662073 -136.0499046 117.65662073 -105.875 98.9375 C-103.68251549 95.50260761 -103.15162394 93.98736749 -104 90 C-108.00823613 83.76496602 -115.13743504 82.64271689 -122 81 C-125.12964167 80.445099 -128.26376949 79.96378817 -131.40625 79.48828125 C-137.27049282 78.38431988 -142.75322769 75.22012969 -146.19921875 70.28125 C-149.96676969 63.61863361 -149.78957985 57.56051607 -148.0625 50.25 C-143.45797872 36.26185715 -132.03957602 25.72015651 -120 18 C-119.3093042 17.54206055 -118.6186084 17.08412109 -117.90698242 16.61230469 C-111.23792589 12.36449798 -104.44867194 9.77129997 -96.9375 7.375 C-95.74157227 6.98747559 -94.54564453 6.59995117 -93.31347656 6.20068359 C-84.2893452 3.31983755 -75.33251366 0.65312895 -66 -1 C-65.17741699 -1.14663086 -64.35483398 -1.29326172 -63.50732422 -1.44433594 C-43.16364047 -4.90756601 -19.63029202 -7.75021092 0 0 Z " fill="#080A0A" transform="translate(269,128)"/>
<path d="M0 0 C-0.59244313 4.20322811 -1.64605419 7.88458277 -3.0625 11.875 C-9.51612332 34.08582769 -4.17596498 60.64807005 6 81 C6.49055907 85.33327174 6.47744439 87.32000344 3.9375 90.9375 C1 93 1 93 -2.5 93.625 C-6.97318863 92.82621632 -8.0884481 91.44342595 -11 88 C-12.23903625 85.44641061 -13.25865537 83.09342503 -14.1875 80.4375 C-14.44160645 79.7264209 -14.69571289 79.0153418 -14.95751953 78.28271484 C-23.83835238 52.57747685 -17.63470337 27.75024789 -6.99560547 3.63793945 C-5.15986771 0.61784024 -3.42295085 0 0 0 Z " fill="#0A0C0C" transform="translate(219,158)"/>
<path d="M0 0 C0.598125 0.350625 1.19625 0.70125 1.8125 1.0625 C1.1525 1.3925 0.4925 1.7225 -0.1875 2.0625 C-0.83963292 4.08713255 -0.83963292 4.08713255 -1.1875 6.0625 C-1.8475 6.0625 -2.5075 6.0625 -3.1875 6.0625 C-3.1875 7.0525 -3.1875 8.0425 -3.1875 9.0625 C-4.321875 9.18625 -5.45625 9.31 -6.625 9.4375 C-7.800625 9.64375 -8.97625 9.85 -10.1875 10.0625 C-10.5175 10.7225 -10.8475 11.3825 -11.1875 12.0625 C-8.8775 12.0625 -6.5675 12.0625 -4.1875 12.0625 C-4.1875 12.3925 -4.1875 12.7225 -4.1875 13.0625 C-33.35607536 13.73244961 -33.35607536 13.73244961 -43.1875 10.0625 C-43.5175 9.4025 -43.8475 8.7425 -44.1875 8.0625 C-43.57455078 7.96227539 -42.96160156 7.86205078 -42.33007812 7.75878906 C-33.22980603 6.25795885 -7.8004973 -3.34307027 0 0 Z " fill="#121414" transform="translate(139.1875,242.9375)"/>
<path d="M0 0 C-0.61407267 4.27292236 -1.65448684 8.15409965 -3 12.25 C-5.5143625 20.75874845 -5.79983765 29.17284016 -6 38 C-6.33 38 -6.66 38 -7 38 C-7.33 34.37 -7.66 30.74 -8 27 C-10.31 26.67 -12.62 26.34 -15 26 C-13.42259949 19.99480859 -11.39577091 14.22644067 -9 8.5 C-8.505 7.3140625 -8.01 6.128125 -7.5 4.90625 C-5.56489758 1.15698905 -4.2734989 0 0 0 Z " fill="#151515" transform="translate(219,158)"/>
<path d="M0 0 C0.33 0.66 0.66 1.32 1 2 C1.99 2.33 2.98 2.66 4 3 C4 9.6 4 16.2 4 23 C3.67 23 3.34 23 3 23 C2.67 19.37 2.34 15.74 2 12 C-0.31 11.67 -2.62 11.34 -5 11 C-3.92289822 6.69159287 -2.96052484 3.36423277 0 0 Z " fill="#1D1D1D" transform="translate(209,173)"/>
<path d="M0 0 C0 0.66 0 1.32 0 2 C-0.72445312 2.38671875 -1.44890625 2.7734375 -2.1953125 3.171875 C-7.29177543 5.9171697 -12.26213387 8.67068867 -17 12 C-17.98120464 8.94736336 -17.98120464 7.05263664 -17 4 C-16.34 4 -15.68 4 -15 4 C-15 3.34 -15 2.68 -15 2 C-14.34 2 -13.68 2 -13 2 C-13 2.66 -13 3.32 -13 4 C-11.02 4 -9.04 4 -7 4 C-7 3.01 -7 2.02 -7 1 C-4.53721199 -0.231394 -2.7204945 -0.07159196 0 0 Z " fill="#0F1110" transform="translate(174,145)"/>
<path d="M0 0 C-0.33 0.99 -0.66 1.98 -1 3 C0.32 3.33 1.64 3.66 3 4 C2.01 4.33 1.02 4.66 0 5 C2.475 5.99 2.475 5.99 5 7 C5 7.33 5 7.66 5 8 C1.37 8.33 -2.26 8.66 -6 9 C-6.66 7.02 -7.32 5.04 -8 3 C-7.34 2.67 -6.68 2.34 -6 2 C-6.99 1.34 -7.98 0.68 -9 0 C-5.62182575 -0.84454356 -3.32534757 -1.10844919 0 0 Z " fill="#161817" transform="translate(207,128)"/>
<path d="M0 0 C1.32 0.33 2.64 0.66 4 1 C4.68707555 3.49064888 5 5.37886292 5 8 C4.34 8 3.68 8 3 8 C2.67 8.66 2.34 9.32 2 10 C-0.31 10 -2.62 10 -5 10 C-4.67 7.69 -4.34 5.38 -4 3 C-3.01 3 -2.02 3 -1 3 C-0.67 2.01 -0.34 1.02 0 0 Z " fill="#020504" transform="translate(172,136)"/>
<path d="M0 0 C0 1.32 0 2.64 0 4 C-0.99 4.495 -0.99 4.495 -2 5 C-0.10244856 7.34973818 -0.10244856 7.34973818 3.125 7.125 C4.548125 7.063125 4.548125 7.063125 6 7 C6 7.66 6 8.32 6 9 C2.04 10.32 -1.92 11.64 -6 13 C-6 11.68 -6 10.36 -6 9 C-5.34 8.67 -4.68 8.34 -4 8 C-5.15173355 5.53199953 -6.04783565 3.95216435 -8 2 C-2.25 0 -2.25 0 0 0 Z " fill="#121413" transform="translate(181,133)"/>
<path d="M0 0 C0.33 1.32 0.66 2.64 1 4 C1.66 4 2.32 4 3 4 C3.33 2.68 3.66 1.36 4 0 C5.49861048 4.49583144 6.18177215 7.4042194 5 12 C5.33 12.66 5.66 13.32 6 14 C5.01 14.33 4.02 14.66 3 15 C-0.16727335 9.8531808 -0.35050464 5.841744 0 0 Z " fill="#191B1A" transform="translate(120,183)"/>
<path d="M0 0 C1.875 0.3125 1.875 0.3125 4 1 C4.66 1.99 5.32 2.98 6 4 C5.67 4.33 5.34 4.66 5 5 C5.66 5.33 6.32 5.66 7 6 C6.67 6.66 6.34 7.32 6 8 C3.36 8 0.72 8 -2 8 C-3 5 -3 5 -3 2 C-2.01 2 -1.02 2 0 2 C0 1.34 0 0.68 0 0 Z " fill="#030504" transform="translate(181,133)"/>
<path d="M0 0 C0 1.32 0 2.64 0 4 C-3.30435084 5.12377697 -5.0506862 4.89554742 -8.25 3.5625 C-8.95640625 3.27503906 -9.6628125 2.98757812 -10.390625 2.69140625 C-10.92171875 2.46324219 -11.4528125 2.23507813 -12 2 C-12 1.67 -12 1.34 -12 1 C-7.95858806 0.36605303 -4.0934693 -0.12404452 0 0 Z " fill="#232323" transform="translate(107,250)"/>
<path d="M0 0 C0.99 0.66 1.98 1.32 3 2 C1.34270405 5.69704481 -0.19285707 8.28809521 -4.0625 9.8125 C-4.701875 9.874375 -5.34125 9.93625 -6 10 C-6.66 9.34 -7.32 8.68 -8 8 C-5.36 5.36 -2.72 2.72 0 0 Z " fill="#EBECEC" transform="translate(156,157)"/>
<path d="M0 0 C0.86625 0.3403125 0.86625 0.3403125 1.75 0.6875 C1.09 1.3475 0.43 2.0075 -0.25 2.6875 C0.07041397 5.29030568 0.07041397 5.29030568 0.75 7.6875 C-0.9 8.0175 -2.55 8.3475 -4.25 8.6875 C-4.91 6.7075 -5.57 4.7275 -6.25 2.6875 C-2.80384615 -0.38942308 -2.80384615 -0.38942308 0 0 Z " fill="#060706" transform="translate(200.25,129.3125)"/>
<path d="M0 0 C0.66 0.33 1.32 0.66 2 1 C1.6875 2.9375 1.6875 2.9375 1 5 C-2 6 -2 6 -5 5 C-5.33 5.99 -5.66 6.98 -6 8 C-7.32 7.67 -8.64 7.34 -10 7 C-6.81404865 4.36021174 -3.69029454 1.89501612 0 0 Z " fill="#121413" transform="translate(154,143)"/>
<path d="M0 0 C0.66 0.33 1.32 0.66 2 1 C-0.12780579 3.34058637 -2.11562221 4.70700306 -5 6 C-4.67 6.66 -4.34 7.32 -4 8 C-5.65 7.67 -7.3 7.34 -9 7 C-3.51752022 1.21293801 -3.51752022 1.21293801 0 0 Z M-2 4 C-1.34 4.66 -0.68 5.32 0 6 C-0.99 6.33 -1.98 6.66 -3 7 C-2.67 6.01 -2.34 5.02 -2 4 Z " fill="#E8E8E8" transform="translate(168,149)"/>
<path d="M0 0 C0.94875 0.04125 1.8975 0.0825 2.875 0.125 C0.41346154 4.925 0.41346154 4.925 -2.3125 5.9375 C-2.910625 5.999375 -3.50875 6.06125 -4.125 6.125 C-4.75 4.25 -4.75 4.25 -5.125 2.125 C-3.125 0.125 -3.125 0.125 0 0 Z " fill="#020504" transform="translate(117.125,248.875)"/>
<path d="M0 0 C0.33 0.99 0.66 1.98 1 3 C-1.80804268 5.96404505 -4.18315774 8.44499019 -8 10 C-7.44449305 6.40094092 -6.25112752 5.00090201 -3.4375 2.75 C-2.79683594 2.22921875 -2.15617188 1.7084375 -1.49609375 1.171875 C-1.00238281 0.78515625 -0.50867188 0.3984375 0 0 Z " fill="#E6E6E6" transform="translate(179,235)"/>
<path d="M0 0 C-0.33 0.99 -0.66 1.98 -1 3 C-1.66 3 -2.32 3 -3 3 C-3 3.66 -3 4.32 -3 5 C-4.98 4.34 -6.96 3.68 -9 3 C-6.40821726 0.40821726 -3.54324677 -1.77162338 0 0 Z " fill="#202020" transform="translate(232,186)"/>
<path d="M0 0 C-3.19668988 2.6486859 -6.39486597 4.93992341 -10 7 C-10.33 6.01 -10.66 5.02 -11 4 C-7.26280719 0.48264206 -5.13496308 -0.47767098 0 0 Z " fill="#E7E8E7" transform="translate(151,145)"/>
<path d="M0 0 C0.99 0.66 1.98 1.32 3 2 C3.66 1.67 4.32 1.34 5 1 C4.3125 2.9375 4.3125 2.9375 3 5 C0.375 5.75 0.375 5.75 -2 6 C-2 4.35 -2 2.7 -2 1 C-1.34 0.67 -0.68 0.34 0 0 Z " fill="#030605" transform="translate(211,241)"/>
<path d="M0 0 C2.97 0 5.94 0 9 0 C6 3 6 3 2.3125 3.1875 C0.6728125 3.0946875 0.6728125 3.0946875 -1 3 C-0.67 2.01 -0.34 1.02 0 0 Z " fill="#030504" transform="translate(129,252)"/>
<path d="M0 0 C-1.62366466 3.24732932 -4.75387839 3.70155136 -8 5 C-8 4.34 -8 3.68 -8 3 C-8.66 2.67 -9.32 2.34 -10 2 C-8.71211992 1.46987262 -7.41953322 0.9511671 -6.125 0.4375 C-5.40570313 0.14746094 -4.68640625 -0.14257812 -3.9453125 -0.44140625 C-2 -1 -2 -1 0 0 Z " fill="#161918" transform="translate(172,137)"/>
<path d="M0 0 C0.66 0.66 1.32 1.32 2 2 C2.66 1.67 3.32 1.34 4 1 C4.33 1.99 4.66 2.98 5 4 C2.525 5.485 2.525 5.485 0 7 C0 4.69 0 2.38 0 0 Z " fill="#131414" transform="translate(170,236)"/>
<path d="M0 0 C2 2 2 2 2 6 C0.02 6.99 0.02 6.99 -2 8 C-1.125 2.25 -1.125 2.25 0 0 Z " fill="#E6E6E6" transform="translate(218,162)"/>
<path d="M0 0 C0 0.66 0 1.32 0 2 C0.66 2.33 1.32 2.66 2 3 C-0.64 3.66 -3.28 4.32 -6 5 C-6 4.34 -6 3.68 -6 3 C-5.34 3 -4.68 3 -4 3 C-4 2.34 -4 1.68 -4 1 C-2 0 -2 0 0 0 Z " fill="#DFE0DF" transform="translate(175,132)"/>
<path d="M0 0 C3.465 1.485 3.465 1.485 7 3 C3.94736336 3.98120464 2.05263664 3.98120464 -1 3 C-0.67 2.01 -0.34 1.02 0 0 Z " fill="#151716" transform="translate(270,129)"/>
</svg>
